<?xml version="1.0" encoding="UTF-8"?>
<svg viewBox="0 0 65 65" version="1.1" xmlns="http://www.w3.org/2000/svg" xmlns:xlink="http://www.w3.org/1999/xlink">
    <g id="Page-1" stroke="none" stroke-width="1" fill="none" fill-rule="evenodd">
        <g id="social.linkedin" fill="#000000" fill-rule="nonzero">
            <path d="M55.204,55.204 L45.604,55.204 L45.604,40.17 C45.604,36.585 45.54,31.97 40.611,31.97 C35.611,31.97 34.846,35.876 34.846,39.909 L34.846,55.203 L25.246,55.203 L25.246,24.287 L34.462,24.287 L34.462,28.512 L34.591,28.512 C36.4701946,25.2989531 39.9643254,23.3799287 43.684,23.518 C53.414,23.518 55.208,29.918 55.208,38.244 L55.204,55.204 Z M14.414,20.0610001 C11.3372217,20.0615522 8.84255245,17.5677783 8.84200009,14.4910001 C8.84144791,11.4142218 11.3352218,8.91955248 14.4120001,8.91900009 C17.4887783,8.91844788 19.9834477,11.4122217 19.9840001,14.489 C19.9842652,15.9665211 19.3975766,17.3836321 18.352999,18.4285848 C17.3084214,19.4735375 15.8915211,20.0607348 14.414,20.0610001 M19.214,55.204 L9.604,55.204 L9.604,24.287 L19.214,24.287 L19.214,55.204 Z M59.99,0.004 L4.78,0.004 C2.17066137,-0.0254463864 0.0308455455,2.06468955 -0.001,4.674 L-0.001,60.113 C0.029755238,62.7235677 2.16939886,64.8157731 4.78,64.7883806 L59.99,64.7883806 C62.6057657,64.8208054 64.7537885,62.7287208 64.79,60.113 L64.79,4.67 C64.7527006,2.05553485 62.6045038,-0.0344816154 59.99,-0.00042059886" id="Path_2520"></path>
        </g>
    </g>
</svg>