<?xml version="1.0" encoding="UTF-8"?>
<svg width="133px" height="23px" viewBox="0 0 133 23" version="1.1" xmlns="http://www.w3.org/2000/svg" xmlns:xlink="http://www.w3.org/1999/xlink">
    <title>workable</title>
    <g id="Page-1" stroke="none" stroke-width="1" fill="none" fill-rule="evenodd">
        <g id="workable" fill-rule="nonzero">
            <path d="M124.468,11.153 C124.663,10.193 125.08,9.312 125.907,8.759 C126.018271,8.68323601 126.134536,8.61508063 126.255,8.555 L126.257,8.554 L126.259,8.552 C126.539,8.409 126.871,8.311 127.249,8.26 C127.469135,8.23106394 127.690973,8.21703199 127.913,8.218 C128.473,8.218 129.079,8.317 129.518,8.694 C130.153,9.238 130.305,10.178 129.786,10.824 C129.258,11.48 128.218,11.594 127.25,11.598 C126.76,11.6 126.29,11.574 125.912,11.574 L124.402,11.574 C124.418,11.437 124.44,11.294 124.468,11.153 L124.468,11.153 Z M130.442,14.687 C130.052,16.37 128.616,17.044 127.25,16.895 C125.71,16.727 124.256,15.514 124.479,13.518 L126.019,13.518 C126.412,13.518 126.826,13.523 127.249,13.517 C128.109,13.504 128.999,13.446 129.799,13.212 C131.131,12.821 131.895,12.042 132.188,11.144 C132.885,9.016 130.946,6.21 127.683,6.262 C127.538489,6.2640129 127.394081,6.27068303 127.25,6.282 C123.684,6.552 122.065,9.437 122.183,13.142 C122.285,16.33 124.23,18.679 127.25,18.862 C127.472,18.878 127.7,18.88 127.935,18.869 C130.259,18.765 132.277,17.264 132.517,14.687 L130.442,14.687 L130.442,14.687 Z M114.305,13.45 C114.281,13.727 114.245,13.998 114.197,14.262 C114.152514,14.5149282 114.087294,14.7637676 114.002,15.006 C113.923131,15.2303509 113.823709,15.4469375 113.705,15.653 C113.482018,16.0393285 113.167447,16.3648892 112.789,16.601 C112.593579,16.7229581 112.379366,16.8118194 112.155,16.864 C111.945,16.916 111.716,16.946 111.468,16.952 C111.434,16.954 111.4,16.954 111.365,16.954 L111.355,16.954 C111.061,16.954 110.796,16.93 110.562,16.884 L110.562,16.883 C110.348526,16.8430548 110.141799,16.7730236 109.948,16.675 C109.699993,16.5471486 109.481874,16.3682231 109.308,16.15 L109.308,16.149 C109.238905,16.0616337 109.176717,15.9690205 109.122,15.872 L109.12,15.868 C109.013856,15.6756887 108.9287,15.4725207 108.866,15.262 C108.792511,15.0177475 108.739001,14.7679246 108.706,14.515 C108.674963,14.2767591 108.650952,14.0376553 108.634,13.798 L108.634,13.797 L108.624,13.644 C108.60434,13.3140348 108.594669,12.9835502 108.594992,12.653 L108.594992,12.615 C108.594992,12.115 108.615,11.651 108.651,11.225 L108.674,10.979 C108.682,10.9 108.692,10.821 108.702,10.743 L108.706,10.714 C108.739105,10.4610933 108.792613,10.2112787 108.866,9.967 C108.934,9.745 109.019,9.542 109.12,9.361 C109.309205,9.01817234 109.595068,8.73856878 109.942,8.557 L109.944,8.556 L109.946,8.555 L109.947,8.554 C110.094,8.478 110.261,8.418 110.444,8.372 L110.56,8.346 C110.793,8.3 111.055,8.275 111.344,8.275 L111.355,8.275 L111.468,8.277 C111.815881,8.27633754 112.161839,8.32860212 112.494,8.432 C112.599,8.466 112.699,8.507 112.791,8.551 L112.792,8.552 L112.799,8.555 L112.8,8.555 C113.171851,8.73621997 113.485908,9.01738306 113.707,9.367 C113.873,9.625 114.003,9.928 114.098,10.275 C114.116,10.34 114.134,10.411 114.151,10.486 C114.167,10.559 114.181,10.634 114.195,10.708 L114.197,10.719 C114.247406,11.0117274 114.283449,11.3067473 114.305,11.603 C114.329,11.92 114.342,12.258 114.342,12.615 C114.342,12.896 114.329,13.175 114.305,13.45 M115.745,8.562 L115.743,8.562 C115.65897,8.39296755 115.563411,8.22991598 115.457,8.074 L115.457,8.073 L115.452,8.067 C115.190605,7.67720833 114.85896,7.33945971 114.474,7.071 L114.474,7.07 C114.322269,6.96470453 114.163571,6.86982017 113.999,6.786 L113.995,6.785 C113.682657,6.62727312 113.35026,6.51288552 113.007,6.445 C112.623221,6.3674488 112.232532,6.32925106 111.841,6.331 L111.829,6.331 C111.706,6.331 111.585,6.333 111.469,6.338 C111.197641,6.34841638 110.927154,6.3751312 110.659,6.418 C110.491028,6.44512449 110.324493,6.48050063 110.16,6.524 C110.009029,6.56513176 109.860745,6.61556136 109.716,6.675 L109.706,6.679 C109.434865,6.79062714 109.180192,6.93865353 108.949,7.119 C108.822,7.22 108.703,7.329 108.595,7.45 L108.595,2.203 L106.425,2.203 L106.425,12.615 C106.425,13.611 106.486,14.498 106.607,15.273 C106.669,15.665 106.761,16.026 106.881,16.354 C107.003,16.685 107.156,16.986 107.338,17.253 C107.705,17.791 108.212,18.201 108.858,18.482 C109.18,18.621 109.551,18.726 109.968,18.796 C110.382,18.864 110.845,18.898 111.355,18.898 L111.355,18.899 L111.468,18.898 C112.432,18.884 113.239,18.69 113.888,18.318 C114.223,18.126 114.524,17.902 114.789,17.651 C115.053198,17.4007244 115.284396,17.117775 115.477,16.809 C115.865301,16.1876238 116.138339,15.5013032 116.283,14.783 C116.347,14.479 116.397,14.178 116.433,13.88 L116.433,13.879 L116.453,13.704 L116.453,13.703 C116.493,13.346 116.51,12.989 116.511,12.634 L116.512,12.634 L116.512,12.615 C116.512,11.674 116.428,10.819 116.262,10.051 C116.153461,9.53462902 115.979384,9.03424355 115.744,8.562 M120.543,18.099 C120.519169,17.9935348 120.502134,17.8866482 120.492,17.779 C120.469389,17.5393388 120.458376,17.2987247 120.459,17.058 L120.459,2.203 L118.289,2.203 L118.289,17.058 C118.289086,17.2975161 118.296756,17.5369695 118.312,17.776 C118.322,17.938 118.34,18.096 118.365,18.247 L118.365,18.249 L118.38,18.339 L118.381,18.342 L118.397,18.43 L118.399,18.432 L118.405,18.461 L118.425,18.56 L120.696,18.56 L120.63,18.39 C120.594064,18.2952103 120.564989,18.1979596 120.543,18.099 M102.238,14.019 C101.895,15.709 100.933,16.688 99.456,16.907 C99.246,16.937 99.025,16.954 98.793,16.954 C98.233,16.954 97.627,16.854 97.189,16.478 C96.552,15.934 96.401,14.994 96.921,14.348 C97.448,13.693 98.488,13.577 99.456,13.573 C99.945,13.571 100.415,13.598 100.794,13.598 L102.303,13.598 C102.287287,13.7388569 102.265601,13.8789831 102.238,14.018 M101.626,6.84 C100.948919,6.50863639 100.209394,6.32426634 99.456,6.299 C97.148,6.229 95.04,7.752 94.785,10.485 L96.86,10.485 C97.04,9.704 97.397,9.15 97.843,8.795 C98.302616,8.4346191 98.8720144,8.24293693 99.456,8.252 C100.059187,8.25707036 100.644986,8.45467244 101.128,8.816 C101.875,9.378 102.373,10.346 102.227,11.654 L100.687,11.654 C100.294,11.654 99.879,11.649 99.456,11.654 C98.596,11.667 97.706,11.726 96.908,11.96 C95.575,12.35 94.811,13.128 94.517,14.027 C93.821,16.156 95.76,18.962 99.023,18.911 C99.167531,18.9082845 99.3119381,18.9009475 99.456,18.889 C101.586,18.715 103.333,17.509 104.062,15.389 C104.422,14.341 104.539,13.169 104.522,12.029 C104.489,9.674 103.46,7.727 101.626,6.839 M61.432,6.574 L61.338,6.574 L61.31,6.664 L58.537,15.866 L56.367,6.672 L56.344,6.574 L54.317,6.574 L54.294,6.672 L52.124,15.866 L49.351,6.664 L49.324,6.574 L47.025,6.574 L47.08,6.74 L50.937,18.356 L50.966,18.443 L53.137,18.443 L53.162,18.35 L55.341,10.469 L57.498,18.349 L57.524,18.443 L59.696,18.443 L59.724,18.356 L63.603,6.74 L63.659,6.573 L63.484,6.573 L61.432,6.574 Z M89.731,12.182 L93.405,6.748 L93.538,6.551 L90.91,6.551 L90.873,6.609 L85.555,14.692 L85.555,2.085 L83.385,2.085 L83.385,18.442 L85.496,18.442 L85.534,18.386 L88.405,14.121 L91.256,18.386 L91.293,18.442 L93.897,18.442 L93.767,18.246 L89.731,12.182 Z M81.376,6.54 L81.374,6.54 L81.184,6.533 L81.183,6.533 L81.083,6.531 L81.082,6.531 L80.927,6.529 L80.828,6.529 C80.108,6.529 79.481,6.597 78.945,6.735 C78.8420208,6.76081486 78.7399605,6.79016556 78.639,6.823 L78.578,6.844 C78.502453,6.86995683 78.4277488,6.89830442 78.354,6.929 L78.344,6.933 C77.9164601,7.10384727 77.5198564,7.34370129 77.17,7.643 L77.17,7.644 C77.0476105,7.75014368 76.9345311,7.86656863 76.832,7.992 L76.831,7.994 L76.829,7.996 C76.4752656,8.42415953 76.2235806,8.9271877 76.093,9.467 C76.0393148,9.68645966 75.9962646,9.90838507 75.964,10.132 L75.964,10.133 L75.948,10.261 L75.948,10.263 C75.915783,10.5271274 75.8990877,10.7929172 75.898,11.059 L75.898,18.442 L78.067,18.442 L78.067,11.076 C78.067,10.952 78.077,10.822 78.095,10.686 C78.112,10.55 78.141,10.403 78.177,10.248 C78.2389815,9.98863734 78.3481299,9.74288385 78.499,9.523 C78.522,9.486 78.551,9.448 78.578,9.411 L78.582,9.404 L78.584,9.404 C78.725,9.216 78.909,9.049 79.131,8.905 C79.2223711,8.84598244 79.31684,8.79190487 79.414,8.743 L79.418,8.741 L79.418,8.742 C79.776,8.563 80.248,8.473 80.828,8.473 L80.919,8.474 L81.015,8.477 L81.095,8.48 L81.159,8.484 C81.281,8.491 81.396,8.495 81.5,8.495 L81.501,8.495 L81.504,8.496 C81.564,8.502 81.621,8.508 81.677,8.512 C81.74,8.516 81.804,8.518 81.865,8.518 L81.993,8.518 L81.993,6.584 L81.878,6.574 C81.7109387,6.55895536 81.5435642,6.54761923 81.376,6.54 M71.922,13.51 C71.903,13.826 71.876,14.123 71.839,14.397 C71.7957181,14.7460903 71.7100879,15.0886112 71.584,15.417 C71.5397551,15.5275733 71.4889996,15.6354289 71.432,15.74 L71.425,15.75 C71.2365266,16.0962151 70.9479416,16.3774809 70.597,16.557 C70.4397048,16.6376608 70.2731349,16.6987812 70.101,16.739 L69.985,16.765 C69.726983,16.8144509 69.4647036,16.8382336 69.202,16.836 L69.19,16.836 C68.895,16.836 68.63,16.812 68.396,16.766 C68.1825937,16.7252869 67.9759269,16.6549394 67.782,16.557 C67.4310217,16.377532 67.1424232,16.0962531 66.954,15.75 C66.8475249,15.5577238 66.7620335,15.354556 66.699,15.144 C66.6258662,14.8997146 66.5726915,14.6498936 66.54,14.397 C66.50146,14.1024518 66.4737746,13.8065849 66.457,13.51 C66.4375438,13.1726891 66.4282063,12.8348706 66.4289534,12.497 C66.4289534,12.137 66.439,11.799 66.457,11.484 C66.475,11.167 66.504,10.871 66.54,10.596 C66.5730186,10.3430784 66.6265279,10.0932569 66.7,9.849 C66.767,9.627 66.853,9.424 66.954,9.243 C67.1421175,8.89711215 67.430389,8.61616068 67.781,8.437 L67.782,8.437 C67.974516,8.34010281 68.179432,8.27011506 68.391,8.229 L68.392,8.229 C68.6506486,8.17914703 68.9135982,8.15502936 69.177,8.157 L69.19,8.157 C69.607,8.157 69.966,8.205 70.267,8.301 L70.268,8.301 C70.3785294,8.33635708 70.4861794,8.38015259 70.59,8.432 L70.597,8.436 L70.597,8.437 C70.9472163,8.61706325 71.2355732,8.89775843 71.425,9.243 C71.569,9.5 71.68,9.803 71.759,10.149 C71.7918469,10.2920158 71.8178763,10.4365122 71.837,10.582 L71.839,10.596 C71.876,10.871 71.903,11.167 71.922,11.484 C71.942,11.799 71.95,12.137 71.95,12.497 C71.95,12.857 71.941,13.195 71.922,13.51 M73.98,10.533 C73.966,10.433 73.95,10.327 73.931,10.22 L73.926,10.197 C73.82444,9.5885631 73.629118,8.99956113 73.347,8.451 C73.3016664,8.3665466 73.2543195,8.28318944 73.205,8.201 L73.2,8.193 L73.2,8.191 C72.6183134,7.24328113 71.6722127,6.5767431 70.584,6.348 C70.1253397,6.25433014 69.6581111,6.20908204 69.19,6.213 C68.465,6.213 67.833,6.306 67.294,6.493 C67.0887827,6.56378025 66.889771,6.65141229 66.699,6.755 L66.699,6.756 L66.691,6.76 C66.3780212,6.93340887 66.0877985,7.14502958 65.827,7.39 C65.5761594,7.62682763 65.3582165,7.89622931 65.179,8.191 L65.18,8.192 C64.927,8.612 64.73,9.073 64.591,9.576 C64.5381057,9.77757351 64.4927408,9.98104801 64.455,10.186 L64.453,10.197 C64.3991471,10.5073284 64.3567849,10.8195416 64.326,11.133 L64.326,11.134 L64.309,11.318 L64.309,11.319 C64.276,11.694 64.26,12.079 64.2589998,12.472 L64.2589998,12.497 C64.2588921,13.1495145 64.3056793,13.8011932 64.399,14.447 C64.413,14.547 64.431,14.652 64.449,14.761 L64.453,14.784 C64.517,15.162 64.611,15.52 64.733,15.857 C64.854,16.195 65.003,16.51 65.179,16.802 C65.490791,17.3157925 65.9172488,17.7504645 66.425,18.072 C66.512,18.13 66.601,18.183 66.688,18.232 L66.69,18.233 L66.693,18.234 L66.693,18.235 C67.0407774,18.4271639 67.4157174,18.5654062 67.805,18.645 C68.217,18.735 68.675,18.78 69.178,18.781 L69.19,18.781 C69.702,18.781 70.168,18.735 70.584,18.645 C70.9744233,18.5650539 71.3503984,18.4261286 71.699,18.233 C72.2261724,17.9392144 72.6833491,17.5345789 73.039,17.047 C73.093,16.971 73.146,16.89 73.197,16.805 L73.198,16.805 L73.2,16.802 C73.452,16.385 73.65,15.92 73.788,15.412 C73.8407514,15.2089787 73.8864455,15.004189 73.925,14.798 L73.926,14.784 C73.979,14.476 74.022,14.164 74.053,13.846 L74.07,13.662 L74.071,13.66 C74.1029343,13.2808234 74.1196144,12.9005164 74.121,12.52 L74.121,12.497 C74.1206576,11.8398528 74.0738744,11.1835513 73.981,10.533" id="Shape" fill="#333E49"></path>
            <path d="M26.402,12.22 C27.764,9.816 28.459,7.676 28.433,6.022 C28.401,3.992 27.593,2.48 26.403,1.478 C22.82,-1.532 15.764,0.074 15.86,6.117 C15.895,8.397 17.002,11.348 19.881,14.907 C19.881,14.907 21.486,13.47 21.838,12.181 C14.195,1.794 30.261,1.228 22.268,12.745 C22.268,12.745 21.344,14.248 20.168,15.255 C17.675,17.605 15.418,18.348 13.45,18.025 C6.617,16.905 5.527,6.709 5.021,0.647 L0.004,0.647 L0,0.849 L0,1.982 C0.262,14.012 8.775,30.747 22.38,17.584 C23.727,16.234 24.494,15.159 24.494,15.159 C25.1847222,14.2163114 25.8217335,13.2354208 26.402,12.221 M37.963,6.992 C37.046,14.056 32.954,20.024 26.784,16.738 C26.6619283,16.9060184 26.5345302,17.0701018 26.402,17.23 C25.8136603,17.9242768 25.1510421,18.5520203 24.426,19.102 C24.4085543,19.0923629 24.3901126,19.084651 24.371,19.079 C25.051,19.506 25.729,19.846 26.402,20.105 C34.022,23.05 40.973,15.768 41.643,6.663 L38.063,6.503 C38.0183403,6.6634773 37.9849259,6.82687364 37.963,6.992" id="Shape" fill="#00756A"></path>
        </g>
    </g>
</svg>