<?xml version="1.0" encoding="UTF-8"?>
<svg width="531px" height="145px" viewBox="0 0 531 145" version="1.1" xmlns="http://www.w3.org/2000/svg" xmlns:xlink="http://www.w3.org/1999/xlink">
    <title>Logo - Wordtype</title>
    <g id="Page-1" stroke="none" stroke-width="1" fill="none" fill-rule="evenodd">
        <g id="Logo---Wordtype" transform="translate(0.189923, 0.688422)" fill="#000000" fill-rule="nonzero">
            <path d="M13.9729606,0 C13.5393666,0 13.2893666,0.179687 13.1448356,0.578125 L9.11358558,10.910156 L5.08233558,0.578125 C4.93780458,0.179687 4.68389858,0 4.25421058,0 L0.652648585,0 C0.113585585,0 -0.140320415,0.324219 0.0784295848,0.828125 L6.66436658,16.847656 L6.66436658,28.082031 C6.66436658,28.546875 6.91827258,28.800781 7.38702258,28.800781 L10.8401486,28.800781 C11.3088986,28.800781 11.5628046,28.546875 11.5628046,28.082031 L11.5628046,16.847656 L18.1487416,0.828125 C18.3635856,0.324219 18.1135856,0 17.5745226,0 L13.9729606,0 Z" id="Path"></path>
            <path d="M21.0963236,23.617187 C21.0963236,27 22.8971046,28.800781 26.2799176,28.800781 L30.3111676,28.800781 C33.6939806,28.800781 35.4947616,27 35.4947616,23.617187 L35.4947616,5.183593 C35.4947616,1.800781 33.6939806,0 30.3111676,0 L26.2799176,0 C22.8971046,0 21.0963236,1.800781 21.0963236,5.183593 L21.0963236,23.617187 Z M27.3228866,24.15625 C26.3892926,24.15625 25.8853866,23.6875 25.8853866,22.71875 L25.8853866,6.085937 C25.8853866,5.148437 26.3892926,4.644531 27.3228866,4.644531 L29.4127306,4.644531 C30.3463236,4.644531 30.8502306,5.148437 30.8502306,6.085937 L30.8502306,22.71875 C30.8502306,23.6875 30.3463236,24.15625 29.4127306,24.15625 L27.3228866,24.15625 Z" id="Shape"></path>
            <path d="M49.8180856,0 C49.4235546,0 49.0993356,0.324219 49.0993356,0.722656 L49.0993356,22.609375 C49.0993356,23.582031 48.5954286,24.050781 47.6579286,24.050781 L45.7868356,24.050781 C44.8493356,24.050781 44.3454286,23.582031 44.3454286,22.609375 L44.3454286,0.722656 C44.3454286,0.324219 44.0212106,0 43.6266786,0 L40.1696476,0 C39.7751166,0 39.4508976,0.324219 39.4508976,0.722656 L39.4508976,23.617187 C39.4508976,27 41.2516786,28.800781 44.6344916,28.800781 L48.6657416,28.800781 C52.0485546,28.800781 53.8493356,27 53.8493356,23.617187 L53.8493356,0.722656 C53.8493356,0.324219 53.5251166,0 53.1305856,0 L49.8180856,0 Z" id="Path"></path>
            <path d="M84.5143216,28.800781 C84.9440086,28.800781 85.0885396,28.585937 85.0182276,28.1875 L79.0416656,0.503906 C78.9713526,0.144531 78.7526026,0 78.4283836,0 L73.4244776,0 C73.1002586,0 72.8854156,0.144531 72.8151026,0.503906 L66.8385396,28.1875 C66.7291656,28.585937 66.9088526,28.800781 67.3072896,28.800781 L71.1588526,28.800781 C71.4830716,28.800781 71.6627586,28.621093 71.7330716,28.296875 L72.7057276,23.039062 L79.1119776,23.039062 L80.1236966,28.296875 C80.1940086,28.621093 80.3736966,28.800781 80.6979156,28.800781 L84.5143216,28.800781 Z M78.2135396,18.863281 L73.6041656,18.863281 L75.9088526,6.300781 L78.2135396,18.863281 Z" id="Shape"></path>
            <path d="M103.409276,5.183593 C103.409276,1.800781 101.608495,0 98.2217756,0 L89.1866196,0 C88.8272446,0 88.6124006,0.21875 88.6124006,0.578125 L88.6124006,28.226562 C88.6124006,28.585937 88.8272446,28.800781 89.1866196,28.800781 L92.9327136,28.800781 C93.2920886,28.800781 93.5069316,28.585937 93.5069316,28.226562 L93.5069316,19.152343 L95.9913076,19.152343 L98.4053696,28.296875 C98.4756816,28.621093 98.6553696,28.800781 99.0147446,28.800781 L102.760839,28.800781 C103.15537,28.800781 103.370214,28.585937 103.264745,28.152343 L100.78037,18.722656 C102.506932,17.964843 103.409276,16.382812 103.409276,13.96875 L103.409276,5.183593 Z M93.5069316,14.402343 L93.5069316,4.753906 L97.0733386,4.753906 C98.0069316,4.753906 98.5108386,5.257812 98.5108386,6.191406 L98.5108386,12.960937 C98.5108386,13.898437 98.0069316,14.402343 97.0733386,14.402343 L93.5069316,14.402343 Z" id="Shape"></path>
            <path d="M121.726137,0.578125 C121.726137,0.21875 121.581606,0 121.148013,0 L107.901919,0 C107.5777,0 107.362856,0.21875 107.362856,0.578125 L107.362856,28.226562 C107.362856,28.585937 107.5777,28.800781 107.901919,28.800781 L121.148013,28.800781 C121.581606,28.800781 121.726137,28.585937 121.726137,28.226562 L121.726137,24.625 C121.726137,24.230469 121.581606,24.050781 121.148013,24.050781 L112.151919,24.050781 L112.151919,16.777343 L119.026919,16.777343 C119.386294,16.777343 119.601137,16.5625 119.601137,16.164062 L119.601137,12.601562 C119.601137,12.203125 119.386294,11.988281 119.026919,11.988281 L112.151919,11.988281 L112.151919,4.789062 L121.148013,4.789062 C121.581606,4.789062 121.726137,4.535156 121.726137,4.175781 L121.726137,0.578125 Z" id="Path"></path>
            <path d="M39.8440546,47.438691 C38.5237416,47.438691 37.4417106,48.520723 37.4417106,49.841035 L37.4417106,122.79416 C37.4417106,126.036347 35.7620226,127.594941 32.6448356,127.594941 L26.4026486,127.594941 C23.2854606,127.594941 21.6057726,126.036347 21.6057726,122.79416 L21.6057726,49.841035 C21.6057726,48.520723 20.5237416,47.438691 19.2034296,47.438691 L7.68389858,47.438691 C6.36358558,47.438691 5.28546058,48.520723 5.28546058,49.841035 L5.28546058,126.157441 C5.28546058,137.434785 11.2854606,143.434785 22.5628046,143.434785 L36.0042106,143.434785 C47.2815546,143.434785 53.2815546,137.434785 53.2815546,126.157441 L53.2815546,49.841035 C53.2815546,48.520723 52.2034296,47.438691 50.8831166,47.438691 L39.8440546,47.438691 Z" id="Path"></path>
            <path d="M103.313307,47.438691 C101.9969,47.438691 101.395338,48.161347 101.395338,49.360566 L101.395338,99.997285 L100.676588,99.997285 L82.4343996,49.001191 C82.0750246,47.91916 81.3562746,47.438691 80.2781496,47.438691 L68.3953376,47.438691 C67.1961186,47.438691 66.4773686,48.161347 66.4773686,49.360566 L66.4773686,141.516816 C66.4773686,142.716035 67.1961186,143.434785 68.3953376,143.434785 L80.8758066,143.434785 C82.1961186,143.434785 82.7976806,142.716035 82.7976806,141.516816 L82.7976806,90.63791 L83.3953376,90.63791 L101.754713,141.876191 C102.114088,142.954316 102.836744,143.434785 103.914869,143.434785 L115.793775,143.434785 C116.992994,143.434785 117.71565,142.716035 117.71565,141.516816 L117.71565,49.360566 C117.71565,48.161347 116.992994,47.438691 115.793775,47.438691 L103.313307,47.438691 Z" id="Path"></path>
            <path d="M179.026021,64.719941 C179.026021,53.438691 172.904927,47.438691 161.748677,47.438691 L148.307271,47.438691 C137.029927,47.438691 130.908833,53.438691 130.908833,64.719941 L130.908833,126.157441 C130.908833,137.434785 137.029927,143.434785 148.307271,143.434785 L161.748677,143.434785 C172.904927,143.434785 179.026021,137.434785 179.026021,126.157441 L179.026021,113.196504 C179.026021,111.997285 178.307271,111.274629 177.108052,111.274629 L165.108052,111.274629 C163.787739,111.274629 163.186177,111.997285 163.186177,113.196504 L163.186177,122.79416 C163.186177,126.036347 161.506489,127.594941 158.385395,127.594941 L152.147114,127.594941 C149.026021,127.594941 147.346333,126.036347 147.346333,122.79416 L147.346333,68.079316 C147.346333,64.958223 148.908833,63.278535 152.147114,63.278535 L158.385395,63.278535 C161.506489,63.278535 163.186177,64.958223 163.186177,68.079316 L163.186177,77.676973 C163.186177,78.880097 163.787739,79.598847 165.108052,79.598847 L177.108052,79.598847 C178.307271,79.598847 179.026021,78.880097 179.026021,77.676973 L179.026021,64.719941 Z" id="Path"></path>
            <path d="M192.220721,126.157441 C192.220721,137.434785 198.220721,143.434785 209.498065,143.434785 L222.939471,143.434785 C234.216815,143.434785 240.216815,137.434785 240.216815,126.157441 L240.216815,64.719941 C240.216815,53.438691 234.216815,47.438691 222.939471,47.438691 L209.498065,47.438691 C198.220721,47.438691 192.220721,53.438691 192.220721,64.719941 L192.220721,126.157441 Z M212.978533,127.954316 C209.861346,127.954316 208.177752,126.395723 208.177752,123.157441 L208.177752,67.719941 C208.177752,64.598847 209.861346,62.91916 212.978533,62.91916 L219.939471,62.91916 C223.060565,62.91916 224.740252,64.598847 224.740252,67.719941 L224.740252,123.157441 C224.740252,126.395723 223.060565,127.954316 219.939471,127.954316 L212.978533,127.954316 Z" id="Shape"></path>
            <path d="M303.568873,47.438691 C302.131373,47.438691 301.291529,48.161347 300.928248,49.598847 L287.611842,109.35666 L274.291529,49.598847 C273.932154,48.161347 273.092311,47.438691 271.650904,47.438691 L255.811061,47.438691 C254.252467,47.438691 253.412623,48.278535 253.412623,49.841035 L253.412623,141.036347 C253.412623,142.594941 254.252467,143.434785 255.811061,143.434785 L266.850123,143.434785 C268.412623,143.434785 269.252467,142.594941 269.252467,141.036347 L269.252467,87.036347 L270.092311,87.036347 L281.971217,141.274629 C282.330592,142.716035 283.170435,143.434785 284.611842,143.434785 L290.490748,143.434785 C291.932154,143.434785 292.771998,142.716035 293.131373,141.274629 L305.010279,87.036347 L305.850123,87.036347 L305.850123,141.036347 C305.850123,142.594941 306.689967,143.434785 308.248561,143.434785 L319.408717,143.434785 C320.967311,143.434785 321.807154,142.594941 321.807154,141.036347 L321.807154,49.841035 C321.807154,48.278535 320.967311,47.438691 319.408717,47.438691 L303.568873,47.438691 Z" id="Path"></path>
            <path d="M385.158022,47.438691 C383.720522,47.438691 382.880678,48.161347 382.517397,49.598847 L369.200991,109.35666 L355.880678,49.598847 C355.521303,48.161347 354.68146,47.438691 353.240053,47.438691 L337.40021,47.438691 C335.841616,47.438691 335.001772,48.278535 335.001772,49.841035 L335.001772,141.036347 C335.001772,142.594941 335.841616,143.434785 337.40021,143.434785 L348.439272,143.434785 C350.001772,143.434785 350.841616,142.594941 350.841616,141.036347 L350.841616,87.036347 L351.68146,87.036347 L363.560366,141.274629 C363.919741,142.716035 364.759584,143.434785 366.200991,143.434785 L372.079897,143.434785 C373.521303,143.434785 374.361147,142.716035 374.720522,141.274629 L386.599428,87.036347 L387.439272,87.036347 L387.439272,141.036347 C387.439272,142.594941 388.279116,143.434785 389.83771,143.434785 L400.997866,143.434785 C402.55646,143.434785 403.396303,142.594941 403.396303,141.036347 L403.396303,49.841035 C403.396303,48.278535 402.55646,47.438691 400.997866,47.438691 L385.158022,47.438691 Z" id="Path"></path>
            <path d="M416.590944,126.157441 C416.590944,137.434785 422.590944,143.434785 433.868288,143.434785 L447.309694,143.434785 C458.587038,143.434785 464.587038,137.434785 464.587038,126.157441 L464.587038,64.719941 C464.587038,53.438691 458.587038,47.438691 447.309694,47.438691 L433.868288,47.438691 C422.590944,47.438691 416.590944,53.438691 416.590944,64.719941 L416.590944,126.157441 Z M437.348756,127.954316 C434.231569,127.954316 432.547975,126.395723 432.547975,123.157441 L432.547975,67.719941 C432.547975,64.598847 434.231569,62.91916 437.348756,62.91916 L444.309694,62.91916 C447.430788,62.91916 449.110475,64.598847 449.110475,67.719941 L449.110475,123.157441 C449.110475,126.395723 447.430788,127.954316 444.309694,127.954316 L437.348756,127.954316 Z" id="Shape"></path>
            <path d="M514.618807,47.438691 C513.3024,47.438691 512.700838,48.161347 512.700838,49.360566 L512.700838,99.997285 L511.982088,99.997285 L493.7399,49.001191 C493.380525,47.91916 492.661775,47.438691 491.58365,47.438691 L479.700838,47.438691 C478.501619,47.438691 477.782869,48.161347 477.782869,49.360566 L477.782869,141.516816 C477.782869,142.716035 478.501619,143.434785 479.700838,143.434785 L492.181307,143.434785 C493.501619,143.434785 494.103181,142.716035 494.103181,141.516816 L494.103181,90.63791 L494.700838,90.63791 L513.060213,141.876191 C513.419588,142.954316 514.142244,143.434785 515.220369,143.434785 L527.099275,143.434785 C528.298494,143.434785 529.02115,142.716035 529.02115,141.516816 L529.02115,49.360566 C529.02115,48.161347 528.298494,47.438691 527.099275,47.438691 L514.618807,47.438691 Z" id="Path"></path>
        </g>
    </g>
</svg>