<?xml version="1.0" encoding="UTF-8"?>
<svg width="78px" height="36px" viewBox="0 0 78 36" version="1.1" xmlns="http://www.w3.org/2000/svg" xmlns:xlink="http://www.w3.org/1999/xlink">
    <title>Puzzle Logo</title>
    <desc>Puzzle Logo</desc>
    <defs></defs>
    <g id="Home-Page-Alternatives" stroke="none" stroke-width="1" fill="none" fill-rule="evenodd">
        <g id="004" class="page-header__logo-svg-path" fill="#000" transform="translate(-681.000000, -52.000000)" fill-rule="nonzero">
            <g id="Nav" transform="translate(190.000000, 52.000000)">
                <path d="M525.663473,31.0324365 L519.811596,31.0324365 C523.03989,23.316484 526.215653,15.7261221 529.416773,8.0750258 L524.783095,8.0750258 C524.022485,7.09993956 523.250559,6.1102455 522.383072,4.99793073 L530.651553,4.99793073 C531.121124,3.90289075 531.168088,3.76851105 531.456463,3.10037058 L520.954387,3.10037058 C520.1545,1.91174366 519.615634,1.1766861 518.812782,0 L535.904468,0 C535.239297,1.63595312 534.574127,3.27196685 533.884568,4.96829082 L539.628295,4.96829082 C539.58696,5.55333045 531.088807,25.5415378 530.228945,27.596147 C530.187005,27.6964014 530.238144,27.5742656 530.104517,27.9335207 C531.690129,27.9335207 533.387944,27.9257622 535.011804,27.9257622 C535.913667,28.7874409 536.576961,29.8253832 537.435249,30.8516877 L528.843411,30.8516877 C528.430123,31.8402907 528.430123,31.8402907 528.018227,32.9687286 L538.920035,32.9687286 C539.708605,34.0229152 540.448032,35.0115182 541.187339,36 L523.629532,36 C524.295489,34.3735026 524.961628,32.7469445 525.663473,31.0324365 Z M524.171363,27.9555233 L526.973297,27.9555233 C529.724576,21.3805556 532.500728,14.7458838 535.305203,8.04368872 L532.556224,8.04368872 C529.771176,14.6575702 526.987458,21.2680573 524.171363,27.9555233 Z M517.864078,6.61206306 C517.86438,9.67236825 517.808884,22.4740802 517.847738,26.2964159 C517.867346,27.0211086 517.875395,27.7558631 517.681974,28.4457637 C517.231225,30.0537741 516.095878,31.0010995 514.334034,30.9467899 C512.545923,30.9467899 510.810828,30.9079974 509.060301,30.9079974 C507.527341,30.9038151 506.053569,29.3384159 506.058048,27.7527112 C506.084616,18.5019691 506.071422,9.25092393 506.071725,0 L509.645464,0 C509.645767,8.83426807 509.646372,17.6684149 509.644859,26.502683 C509.644859,27.749923 510.60367,28.0522015 512.130094,28.0522015 C513.452264,28.0522015 514.305892,27.6537297 514.305892,26.4250979 C514.306497,17.6167118 514.306497,8.80838619 514.3068,0 C514.358544,0 516.245664,2.41016687 517.158783,3.59970299 C517.80023,4.43531803 517.863896,5.55933117 517.864078,6.61206306 Z M494.591713,21.2133235 L494.591713,30.8793273 L491,30.8793273 L491,0 L498.652393,0 C500.788854,0 502.151875,1.47411559 502.151875,3.44247208 C502.151875,8.04150664 502.199261,12.9211808 502.176385,17.5202154 C502.166157,19.5681571 500.857664,21.1158573 498.728466,21.1616203 L494.591713,21.2133235 Z M497.39401,17.9492364 C498.239105,17.9014731 498.607064,17.5217307 498.608577,16.7687316 C498.617292,12.4822193 498.609545,8.19558567 498.618562,3.90913392 C498.61947,3.53217977 498.384049,3.18074383 497.991883,3.10328002 C496.959903,3.10328002 495.76204,3.07163988 494.602607,3.07163988 L494.602607,17.9607529 C495.589741,17.9607529 496.494387,18.0003334 497.39401,17.9492364 Z M556.880358,5.01872109 L566.746252,5.01872109 C565.935291,6.04351025 565.167903,7.0122321 564.396279,7.98610608 L560.509714,7.98610608 L560.509714,18.9704493 L565.644192,18.9704493 L565.644192,21.9907497 L560.51153,21.9907497 L560.51153,33.0517082 L569,33.0517082 L569,36 L556.880358,36 L556.880358,5.01872109 Z M543.055456,23.2773884 C543.056061,17.4845141 543.055638,11.6916399 543.055638,5.89870506 L543.055638,5.01732699 L546.623446,5.01732699 L546.623446,32.9726078 L554.39482,32.9726078 L554.39482,36 L543.051885,36 C543.053156,31.7591295 543.054972,27.5182589 543.055456,23.2773884 Z" id="Combined-Shape"></path>
            </g>
        </g>
    </g>
</svg>