<?xml version="1.0" encoding="UTF-8"?>
<svg viewBox="0 0 156 30" version="1.1" xmlns="http://www.w3.org/2000/svg" xmlns:xlink="http://www.w3.org/1999/xlink">
    <title>fitlink-logo-main 2</title>
    <g id="Page-1" stroke="none" stroke-width="1" fill="none" fill-rule="evenodd">
        <g id="fitlink-logo-main-2" fill="#000000" fill-rule="nonzero">
            <g id="fitlink-logo-main">
                <circle id="Oval" cx="15" cy="15" r="15"></circle>
                <g id="Logo/Fitlink-white" transform="translate(45.000000, 7.000000)">
                    <path d="M8.07978174,3.45161964 C7.60670805,3.45161964 7.18276761,3.46981451 6.80794768,3.5062048 C6.43312776,3.54259508 6.11471755,3.62993045 5.85270751,3.76821353 C5.59069747,3.90649661 5.39055391,4.11209863 5.25227083,4.38502576 C5.11398775,4.65795289 5.04484725,5.0309477 5.04484725,5.50402139 L5.04484725,6.06078995 L16.3548909,6.06078995 L16.3548909,9.25947991 L5.04484725,9.25947991 L5.04484725,15.2529297 L0.994628906,15.2529297 L0.994628906,5.16559344 C0.994628906,4.39411943 1.10925658,3.7027144 1.33851537,3.09135764 C1.56777416,2.48000087 1.95168589,1.96508607 2.49026209,1.54659781 C3.02883829,1.12810955 3.74207716,0.807879851 4.63000009,0.58589912 C5.51792301,0.363918388 6.62417105,0.252929688 7.94877738,0.252929688 L16.8898254,0.252929688 L16.8898254,3.45161964 L8.07978174,3.45161964 Z M20.0084188,15.2529297 L20.0084188,0.252929688 L24.0586372,0.252929688 L24.0586372,15.2529297 L20.0084188,15.2529297 Z M36.8060515,3.51712183 L36.8060515,15.2529297 L32.7558332,15.2529297 L32.7558332,3.51712183 L26.3912044,3.51712183 L26.3912044,0.252929688 L43.1815974,0.252929688 L43.1815974,3.51712183 L36.8060515,3.51712183 Z M49.5534659,8.83371571 C49.5534659,9.4596286 49.6116895,9.97090441 49.7281384,10.3675585 C49.8445873,10.7642126 50.0338139,11.0789838 50.295824,11.3118817 C50.557834,11.5447795 50.8980781,11.7048943 51.3165663,11.792231 C51.7350546,11.8795677 52.2499694,11.9232354 52.8613262,11.9232354 L60.5469157,11.9232354 L60.5469157,15.2529297 L52.0316319,15.2529297 C50.8525867,15.2529297 49.8500494,15.1564969 49.0239899,14.9636284 C48.1979305,14.7707599 47.5229008,14.472364 46.9988808,14.0684319 C46.4748607,13.6644997 46.0945879,13.1532239 45.8580511,12.5345891 C45.6215142,11.9159543 45.5032476,11.1808815 45.5032476,10.3293489 L45.5032476,0.252929688 L49.5534659,0.252929688 L49.5534659,8.83371571 Z M63.4362515,15.2529297 L63.4362515,0.252929688 L67.4864698,0.252929688 L67.4864698,15.2529297 L63.4362515,15.2529297 Z M84.8213353,15.2529297 L74.701248,4.94725283 L74.701248,15.2529297 L70.6510297,15.2529297 L70.6510297,0.252929688 L75.050593,0.252929688 L85.1815973,10.6022747 L85.1815973,0.252929688 L89.2099816,0.252929688 L89.2099816,15.2529297 L84.8213353,15.2529297 Z M96.4465939,5.9734537 L104.743537,0.252929688 L110.169301,0.252929688 L100.071048,7.44725283 L110.846157,15.2529297 L104.940044,15.2529297 L96.4465939,9.01930523 L96.4465939,15.2529297 L92.3745415,15.2529297 L92.3745415,0.252929688 L96.4465939,0.252929688 L96.4465939,5.9734537 Z" id="fitliNK"></path>
                </g>
            </g>
        </g>
    </g>
</svg>