<svg id="Layer_1" data-name="Layer 1" xmlns="http://www.w3.org/2000/svg" viewBox="0 0 183 80.71"><defs><style>.cls-1{fill:#000}</style></defs><g id="Layer_1-2" data-name="Layer 1-2"><path class="cls-1" d="M182.86 56.89c-1.74-3.45-6.66 4.87-11.28-6.46-1.79-4.36-1.4-15.27-.83-20.29.43-4.05-3.33-4-3.88-.33a65.87 65.87 0 00-.34 13.39c-13.4.75-15.08 13.41-19.68 13.49-3.79.06-4.17-13.69-10.64-13.52-3.84.1-7 4.29-8.46 7.32a21.93 21.93 0 00.15-5c-.17-1.56-.7-2.14-1.78-2.15-1.58 0-3.08 3.21-3.33 3.74-1.53 2.91-3.55 9.22-8.06 9.45-4.82.24-5.33-9.78-5.71-11.76-.29-1.45-1-1.92-2-1.89-1.27 0-2 1.37-2.5 3.15-.67 2.36-3.33 11.05-7.86 10.88C90 56.67 93 34.9 84.17 35.23c-3.28.12-5.37 3.62-6.07 6.15-1-5.83-4.67-6.09-5.72-6.1-2.82 0-4.87 2.44-6.37 6.58.46-3.66-2.21-24.26-22.17-24.72a34.32 34.32 0 00-9.62 1.17q1-5.26 2.29-10.51c.83-3.55.83-4.72-.13-5.17-1.83-.83-2.86 1-3.48 3.92s-1.56 7.58-2.5 13a40 40 0 00-4.16 1.9c-4-7.84-8-15.36-10.93-19.1C13.86.46 12.51-.53 10.93.29 7.75 2 12 12 15.32 17.68c-3.23-2.49-6.66-3.45-9.06-1.87-3.63 2.36-1.56 9.65 3.2 17.25C8.09 34 7.31 35 7.5 36a2.1 2.1 0 002 1.71 43.94 43.94 0 00-2.67 5.58C2.54 45.92-.7 48.92.13 51.6.64 53.36 2.26 54 4.42 54c-.13 3.58.62 6.47 2.23 8 4.58 4.45 13.35 3 21.57-1 1.45 11.5 5 20.12 9.37 19.73 5.13-.46 4.71-12.67 1.67-25.8 6.84 1.2 12.7.19 12.93-4 .15-2.75-2.29-5.29-5.4-7.32a7.51 7.51 0 00-.41-6.41 8.22 8.22 0 00-2.83-2.88c2.37-2.32 3.73-4.58 3.17-6.48-1.22-3.89-8-3.49-13.85-2.39.18-1.15.38-2.31.59-3.48a25.24 25.24 0 0110.42-1.3C64 21.66 63 43.06 63 57.21c0 4 3 4.46 3.41-.2.26-3 2-18.38 5.82-17.9s3.33 16.44 3.33 18.8c-.08 3.07 3.21 3.45 3.33-.08 0-1.46.92-18.22 5.24-18.46s2 21.12 12 21.14c6.45 0 9.41-6.39 10-8.7 1.21 6 4.74 8.56 8.24 8.7 4.58.15 8.45-5 9.58-7.84.05 2.43-.21 7.71 2 7.86 1.66.11 2.78-3.57 4.3-6.78s3.54-6.51 5.44-6.49c3.66 0 3.62 13.85 11.08 13.11a8.7 8.7 0 005.25-2.85c1.93 6.17 13.21 1.44 16.44-4.45 1.56 4 4.17 7 8.19 7.32 3.77.38 7.09-1.66 6.16-3.5M4.59 51c-.83.06-1.33-.07-1.44-.45-.16-.6.64-1.46 2-2.5-.24 1-.45 2-.59 2.93m23.8-17.49v.41c-1 .26-2 .54-3 .83a21.93 21.93 0 00-.92-4.16l2.39-.57c.52 1.14 1 2.28 1.55 3.43m2.5 20.68c0-.6-.07-1.21-.09-1.83 1.06.45 2.14.83 3.21 1.17-1 .72-2 1.41-3.05 2.06 0-.46-.06-.92-.09-1.38M22 35.81c-1.15.55-2.85 1.22-4.81 2-.76-.92-1.49-1.83-2.18-2.8.5-.68 1-1.37 1.55-2a45.08 45.08 0 014.52-1.49 18.46 18.46 0 01.92 4.39M20.71 40l1.05-.44a9.9 9.9 0 01-.83 2.44c-.46-.46-.94-.91-1.41-1.42l1.19-.58m10.12 3.21l1.17-.72c1 2.69 2 5.31 2.71 7.75a41.44 41.44 0 01-4-1.71c0-1.76.06-3.57.16-5.42m-3.45 3.69c-.5-.3-1-.61-1.49-.94l1.55-.86-.06 1.78M38 50.25c-.76-2.79-1.61-5.58-2.5-8.24a33.36 33.36 0 016.91 3.13 24.29 24.29 0 01-4.37 5.12m-4.26-12.78l-.58-1.41a22.49 22.49 0 013.17-.28c-.83.55-1.66 1.12-2.59 1.67m-6.08 3.6c-1.25.69-2.42 1.37-3.46 1.89A14.85 14.85 0 0025.39 38c.83-.29 1.73-.57 2.6-.83-.11 1.28-.21 2.56-.29 3.85M25.38 27c-.63.16-1.38.35-2.16.57L23 27c.59-.43 1.21-.83 1.83-1.24zM13.27 5.18c.53-.25 5.17 7.68 10.17 17.86l-1.76 1.15c-7.31-15.15-9-18.73-8.41-19m-4.9 13.73c2.07-1.59 7.13 2.11 10.39 7.49a37.8 37.8 0 00-4.16 4l-2 .83C9 25.53 6.72 20.16 8.44 18.87M14 39.3c-.73.33-1.47.69-2.2 1.08.38-.75.83-1.5 1.25-2.25L14 39.3m-4.41 6.05c2-1.11 4.38-2.29 6.73-3.4.88.92 1.8 1.84 2.75 2.72a13.23 13.23 0 01-3.35 2.6c-2.36 1-5.11 2.13-7.43 2.87a32.9 32.9 0 011.3-4.79M9.69 60c-1.38-1.15-2-3.47-1.87-6.41a51.34 51.34 0 0012.24-4.69c.4-.21 1.29-.65 2.49-1.28.46.37.94.72 1.44 1.06a30 30 0 003.43 2.11c0 2.29.14 4.49.32 6.66-7 3.73-14.5 5.53-18.07 2.58M37.14 76.8c-1.57.35-4.58-7.1-5.83-17.55A54.12 54.12 0 0036.25 56c2.2 11.34 2.78 20.41.91 20.81m11.35-26.16c-.07 1.38-3.13 1.83-7.41 1.17a30 30 0 004-4.93c2 1.46 3.47 2.9 3.42 3.76m-4.78-10.82a5 5 0 010 2 50.56 50.56 0 00-6.45-2.71c1.32-1 2.38-1.67 3.54-2.62a4.6 4.6 0 012.89 3.32m-1.2-11.12c.83.95-.31 2.5-2.38 4.25a22.82 22.82 0 00-8.24.21l-.14-.29c.16-1.3.33-2.64.52-3.95 4.58-.83 9.24-1.41 10.24-.21M29.3 26.1l-.75.17c-.33-.65-.64-1.3-1-1.94.74-.36 1.46-.7 2.13-1-.14.92-.27 1.83-.4 2.75m125.96 29.73c-.92-2.79 4.85-9.26 11.53-9.28 1.67 5.25-10.07 13.8-11.53 9.28"/><path class="cls-1" d="M108.77 35.84a2.08 2.08 0 002.29-1.84 2.16 2.16 0 00-2.12-2.13 2.25 2.25 0 00-2.29 2.1 2 2 0 002.08 1.92h.07"/></g></svg>